<?xml version="1.0"?>
<svg xmlns:rdf="http://www.w3.org/1999/02/22-rdf-syntax-ns#" xmlns="http://www.w3.org/2000/svg" xmlns:cc="http://creativecommons.org/ns#" xmlns:xlink="http://www.w3.org/1999/xlink" xmlns:dc="http://purl.org/dc/elements/1.1/" xmlns:svg="http://www.w3.org/2000/svg" id="svg2" viewBox="0 0 768 768" version="1.1">
  <defs id="defs4">
    <clipPath id="clipPathFlag" clipPathUnits="userSpaceOnUse">
      <rect id="rect3918" fill-opacity=".67" ry="57" height="511" width="511" y=".5" x=".5"/>
    </clipPath>
    <linearGradient id="linearGradient3852-0">
      <stop id="stop3854-6" stop-color="#dbe3db" offset="0"/>
      <stop id="stop3856-1" stop-color="#dbe3db" stop-opacity="0" offset="1"/>
    </linearGradient>
    <linearGradient id="linearGradient5122" x1="342.19" xlink:href="#linearGradient3852-0" gradientUnits="userSpaceOnUse" y1="705.76" gradientTransform="matrix(1.1571 0 0 1.3167 -91.204 -253.99)" x2="358.08" y2="523.41"/>
    <linearGradient id="linearGradient5125" x1="405.26" xlink:href="#linearGradient3852-0" gradientUnits="userSpaceOnUse" y1="118.06" gradientTransform="matrix(.95303 0 0 .86647 11.575 -4.5016)" x2="405.75" y2="360.92"/>
    <filter id="filter5740">
      <feGaussianBlur id="feGaussianBlur5742" stdDeviation="5.12"/>
    </filter>
    <clipPath id="clipPath5796" clipPathUnits="userSpaceOnUse">
      <rect id="rect5798" ry="57" height="512" width="512" stroke="#00fa00" y="0" x="0" stroke-width="20" fill="none"/>
    </clipPath>
    <filter id="filter5912">
      <feGaussianBlur id="feGaussianBlur5914" stdDeviation="17.92"/>
    </filter>
  </defs>
  <g id="template-button">&gt;
  <g id="00" transform="translate(90,90)"><rect id="shadow" ry="57" height="512" filter="url(#filter5912)" width="512" stroke="#a8a8a8" y="56" x="38" stroke-width="5"/></g>
  <g id="01" transform="translate(128,128)" clip-path="url(#clipPathFlag)"><rect id="mask" ry="57" height="512" width="512" y="0" x="0" fill="#00f"/><g id="flag" clip-path="url(#clipPath8018)"><rect id="rect149" fill-rule="evenodd" transform="scale(-1)" height="512" width="730.17" y="-511.56" x="-610.61" fill="#fff"/><path id="path607" fill-rule="evenodd" fill="#fff" transform="matrix(.68690 0 0 .68690 -88.735 -532.54)" d="m495.86 1148a163.79 163.79 0 1 1 -327.58 0 163.79 163.79 0 1 1 327.58 0z"/><path id="path635" fill-rule="evenodd" fill="#c70000" transform="matrix(.63784 0 0 .64461 -74.972 16.483)" d="m733.7 381.73a227.74 227.74 0 1 1 -455.48 0 227.74 227.74 0 1 1 455.48 0z"/><rect id="rect636" fill-rule="evenodd" transform="rotate(-49.156)" height="26.201" width="127.92" y="45.309" x="-127.97" stroke-width="1pt"/><rect id="rect637" fill-rule="evenodd" transform="rotate(-49.156)" height="26.201" width="127.92" y="81.527" x="-127.97" stroke-width="1pt"/><rect id="rect638" fill-rule="evenodd" transform="rotate(-49.156)" height="26.201" width="127.92" y="45.309" x="-127.97" stroke-width="1pt"/><rect id="rect639" fill-rule="evenodd" transform="rotate(-49.156)" height="26.201" width="127.92" y="45.309" x="-127.97" stroke-width="1pt"/><rect id="rect640" fill-rule="evenodd" transform="rotate(-49.156)" height="26.201" width="127.92" y="118.52" x="-127.97" stroke-width="1pt"/><rect id="rect641" fill-rule="evenodd" transform="rotate(-49.156)" height="26.201" width="127.92" y="45.309" x="-127.97" stroke-width="1pt"/><rect id="rect643" fill-rule="evenodd" transform="rotate(-49.156)" height="26.201" width="127.92" y="45.309" x="-127.97" stroke-width="1pt"/><rect id="rect644" fill-rule="evenodd" transform="matrix(.64886 .76090 -.76090 .64886 0 0)" height="26.201" width="127.92" y="-330.34" x="320.65" stroke-width="1pt"/><rect id="rect645" fill-rule="evenodd" transform="matrix(.64886 .76090 -.76090 .64886 0 0)" height="26.201" width="127.92" y="-257.13" x="320.65" stroke-width="1pt"/><path id="path649" fill-rule="evenodd" fill="#fff" d="m417.55 133.19 78.602-67.814 14.641 16.953-83.996 75.519-9.2471-24.659z"/><rect id="rect646" fill-rule="evenodd" transform="matrix(-.64282 .76602 -.76881 -.63948 0 0)" height="25.644" width="125.1" y="-633.05" x="-42.832" stroke-width="1pt"/><rect id="rect642" fill-rule="evenodd" transform="matrix(.64886 .76090 -.76090 .64886 0 0)" height="26.201" width="127.92" y="-294.12" x="320.65" stroke-width="1pt"/><rect id="rect647" fill-rule="evenodd" transform="matrix(-.64282 .76602 -.76881 -.63948 0 0)" height="25.644" width="125.1" y="-668.49" x="-42.832" stroke-width="1pt"/><rect id="rect648" fill-rule="evenodd" transform="matrix(-.64282 .76602 -.76881 -.63948 0 0)" height="25.644" width="125.1" y="-596.84" x="-42.832" stroke-width="1pt"/><path id="path653" fill-rule="evenodd" fill="#3d5897" d="m104.6 236.68c4.5919 36.974 11.297 78.175 68.199 82.455 21.328 1.2776 62.817-5.0735 77.061-63.19 18.688-55.829 74.975-71.88 113.28-41.613 21.718 14.166 27.727 36.666 29.283 53.557-1.7386 54.243-32.874 101.2-72.823 122.14-45.93 27.3-109.56 27.87-165.3-13.49-25.12-23.57-60.219-67.02-49.7-139.86z"/><path id="path654" fill-rule="evenodd" fill="#fff" d="m435.91 370.59 78.734 67.661-14.591 16.997-87.156-71.851 23.013-12.807z"/><rect id="rect658" fill-rule="evenodd" transform="matrix(.64886 .76090 -.76090 .64886 0 0)" height="26.201" width="127.92" y="233.21" x="270.57" stroke-width="1pt"/><path id="path657" stroke-width="1pt" fill-rule="evenodd" fill="#fff" d="m-16.188 437.25 78.602-67.814 14.641 16.953-83.996 75.519-9.2471-24.659z"/><rect id="rect655" fill-rule="evenodd" transform="matrix(.64886 .76090 -.76090 .64886 0 0)" height="26.201" width="127.92" y="196.99" x="270.57" stroke-width="1pt"/><rect id="rect656" fill-rule="evenodd" transform="matrix(.64886 .76090 -.76090 .64886 0 0)" height="26.201" width="127.92" y="270.2" x="270.57" stroke-width="1pt"/></g></g>
  <g id="02" transform="translate(0,38)"><path id="path3862-8" style="color:#000000" fill="url(#linearGradient5125)" d="m214.21 111.21c-45.245 0.18809-68.716 7.7308-64.094 83.553l2.8252 46.345c47.474 5.5124 56.664 18.445 104.36 21.914 68.073 4.9513 67.937 5.4209 130.56-14.384 62.628-19.805 5.8248-65.247 207.32-57.82 4.6033 0.16968 17.314-3.0527 27.462-12.15 5.5817-46.524-2.7842-69.143-66.934-68.876z"/><path id="path3079-9" style="color:#000000" fill="url(#linearGradient5122)" d="m531.03 495.17c-31.605 19.022-27.601 31.26-37.913 32.573-94.704 12.053-145.98-0.72701-165.8-12.061-59.588-34.078-68.468-13.014-100.22-16.574-20.115-2.2551-59.245 12.984-73.388 44.344 3.4722 27.608 18.111 32.098 44.281 31.986l356.06-1.5268c69.692-0.29885 56.335-8.4926 65.543-56.039-14.772-21.671-13.157 9.109-44.224-30.717z"/><rect id="rect5734" transform="translate(128,90)" clip-path="url(#clipPath5796)" ry="57" height="512" filter="url(#filter5740)" width="512" stroke="#000" y="0" x="0" stroke-width="20" fill="none"/></g>
 </g>
  <metadata>
    <rdf:RDF>
      <cc:Work>
        <dc:format>image/svg+xml</dc:format>
        <dc:type rdf:resource="http://purl.org/dc/dcmitype/StillImage"/>
        <cc:license rdf:resource="http://creativecommons.org/licenses/publicdomain/"/>
        <dc:publisher>
          <cc:Agent rdf:about="http://openclipart.org/">
            <dc:title>Openclipart</dc:title>
          </cc:Agent>
        </dc:publisher>
        <dc:title>kr</dc:title>
        <dc:date>2011-08-21T12:01:19</dc:date>
        <dc:description>country flag buttons (with ISO-3166-1 naming convention)</dc:description>
        <dc:source>http://openclipart.org/detail/156643/kr-by-koppi</dc:source>
        <dc:creator>
          <cc:Agent>
            <dc:title>koppi</dc:title>
          </cc:Agent>
        </dc:creator>
        <dc:subject>
          <rdf:Bag>
            <rdf:li>ISO3166-1</rdf:li>
            <rdf:li>button</rdf:li>
            <rdf:li>clip art</rdf:li>
            <rdf:li>clipart</rdf:li>
            <rdf:li>country</rdf:li>
            <rdf:li>flag</rdf:li>
            <rdf:li>flags</rdf:li>
            <rdf:li>squared</rdf:li>
          </rdf:Bag>
        </dc:subject>
      </cc:Work>
      <cc:License rdf:about="http://creativecommons.org/licenses/publicdomain/">
        <cc:permits rdf:resource="http://creativecommons.org/ns#Reproduction"/>
        <cc:permits rdf:resource="http://creativecommons.org/ns#Distribution"/>
        <cc:permits rdf:resource="http://creativecommons.org/ns#DerivativeWorks"/>
      </cc:License>
    </rdf:RDF>
  </metadata>
</svg>
